<?xml version="1.0" encoding="utf-8"?>
<svg width="800px" height="800px" viewBox="0 0 24 24" fill="none" xmlns="http://www.w3.org/2000/svg">
<path d="M12 15C13.6569 15 15 13.6569 15 12C15 10.3431 13.6569 9 12 9C10.3431 9 9 10.3431 9 12C9 13.6569 10.3431 15 12 15Z" stroke="#ffffff" stroke-width="1.5"/>
<path d="M12.9046 3.06005C12.6988 3 12.4659 3 12 3C11.5341 3 11.3012 3 11.0954 3.06005C10.7942 3.14794 10.5281 3.32808 10.3346 3.57511C10.2024 3.74388 10.1159 3.96016 9.94291 4.39272C9.69419 5.01452 9.00393 5.33471 8.36857 5.123L7.79779 4.93281C7.3929 4.79785 7.19045 4.73036 6.99196 4.7188C6.70039 4.70181 6.4102 4.77032 6.15701 4.9159C5.98465 5.01501 5.83376 5.16591 5.53197 5.4677C5.21122 5.78845 5.05084 5.94882 4.94896 6.13189C4.79927 6.40084 4.73595 6.70934 4.76759 7.01551C4.78912 7.2239 4.87335 7.43449 5.04182 7.85566C5.30565 8.51523 5.05184 9.26878 4.44272 9.63433L4.16521 9.80087C3.74031 10.0558 3.52786 10.1833 3.37354 10.3588C3.23698 10.5141 3.13401 10.696 3.07109 10.893C3 11.1156 3 11.3658 3 11.8663C3 12.4589 3 12.7551 3.09462 13.0088C3.17823 13.2329 3.31422 13.4337 3.49124 13.5946C3.69158 13.7766 3.96395 13.8856 4.50866 14.1035C5.06534 14.3261 5.35196 14.9441 5.16236 15.5129L4.94721 16.1584C4.79819 16.6054 4.72367 16.829 4.7169 17.0486C4.70875 17.3127 4.77049 17.5742 4.89587 17.8067C5.00015 18.0002 5.16678 18.1668 5.5 18.5C5.83323 18.8332 5.99985 18.9998 6.19325 19.1041C6.4258 19.2295 6.68733 19.2913 6.9514 19.2831C7.17102 19.2763 7.39456 19.2018 7.84164 19.0528L8.36862 18.8771C9.00393 18.6654 9.6942 18.9855 9.94291 19.6073C10.1159 20.0398 10.2024 20.2561 10.3346 20.4249C10.5281 20.6719 10.7942 20.8521 11.0954 20.94C11.3012 21 11.5341 21 12 21C12.4659 21 12.6988 21 12.9046 20.94C13.2058 20.8521 13.4719 20.6719 13.6654 20.4249C13.7976 20.2561 13.8841 20.0398 14.0571 19.6073C14.3058 18.9855 14.9961 18.6654 15.6314 18.8771L16.1584 19.0528C16.6054 19.2018 16.829 19.2763 17.0486 19.2831C17.3127 19.2913 17.5742 19.2295 17.8067 19.1041C18.0002 18.9998 18.1668 18.8332 18.5 18.5C18.8332 18.1668 18.9998 18.0002 19.1041 17.8067C19.2295 17.5742 19.2913 17.3127 19.2831 17.0486C19.2763 16.829 19.2018 16.6054 19.0528 16.1584L18.8771 15.6314C18.6654 14.9961 18.9855 14.3058 19.6073 14.0571C20.0398 13.8841 20.2561 13.7976 20.4249 13.6654C20.6719 13.4719 20.8521 13.2058 20.94 12.9046C21 12.6988 21 12.4659 21 12C21 11.5341 21 11.3012 20.94 11.0954C20.8521 10.7942 20.6719 10.5281 20.4249 10.3346C20.2561 10.2024 20.0398 10.1159 19.6073 9.94291C18.9855 9.6942 18.6654 9.00393 18.8771 8.36857L19.0528 7.84164C19.2018 7.39456 19.2763 7.17102 19.2831 6.9514C19.2913 6.68733 19.2295 6.4258 19.1041 6.19325C18.9998 5.99985 18.8332 5.83323 18.5 5.5C18.1668 5.16678 18.0002 5.00015 17.8067 4.89587C17.5742 4.77049 17.3127 4.70875 17.0486 4.7169C16.829 4.72367 16.6054 4.79819 16.1584 4.94721L15.6314 5.123C14.9961 5.33471 14.3058 5.01452 14.0571 4.39272C13.8841 3.96016 13.7976 3.74388 13.6654 3.57511C13.4719 3.32808 13.2058 3.14794 12.9046 3.06005Z" stroke="#ffffff" stroke-width="1.5"/>
</svg>